<svg xmlns="http://www.w3.org/2000/svg" width="41.372" height="31.029" viewBox="0 0 41.372 31.029">
  <path id="Icon_awesome-image" data-name="Icon awesome-image" d="M37.493,35.529H3.879A3.879,3.879,0,0,1,0,31.65V8.379A3.879,3.879,0,0,1,3.879,4.5H37.493a3.879,3.879,0,0,1,3.879,3.879V31.65A3.879,3.879,0,0,1,37.493,35.529ZM9.05,9.025a4.525,4.525,0,1,0,4.525,4.525A4.525,4.525,0,0,0,9.05,9.025ZM5.171,30.357H36.2v-9.05l-7.072-7.072a.97.97,0,0,0-1.371,0l-10.95,10.95L12.321,20.7a.97.97,0,0,0-1.371,0L5.171,26.479Z" transform="translate(0 -4.5)" fill="#66776c"/>
</svg>
