<svg id="Icon_awesome-rocketchat" data-name="Icon awesome-rocketchat" xmlns="http://www.w3.org/2000/svg" width="68.504" height="60.211" viewBox="0 0 68.504 60.211">
  <path id="Icon_awesome-rocketchat-2" data-name="Icon awesome-rocketchat" d="M57.848,12.654c-9.149-6.045-21.31-7.421-31.412-5.6C15.135-3.845,2.47,1.169,0,2.61,0,2.61,8.691,10,7.28,16.464c-10.29,10.49-5.4,22.168,0,27.683C8.691,50.616,0,58,0,58c2.446,1.446,15.077,6.445,26.437-4.4,10.079,1.811,22.24.447,31.412-5.609,14.184-9.055,14.23-26.237,0-35.34ZM34.987,47.934a40.38,40.38,0,0,1-10.479-1.352l-2.351,2.27A21.376,21.376,0,0,1,17.8,52.11a17.024,17.024,0,0,1-6.15,1.752c.119-.212.224-.423.329-.623q3.529-6.541,1.9-11.737C10.019,38.455,7.7,34.563,7.7,30.306c0-9.752,12.219-17.653,27.284-17.653s27.284,7.9,27.284,17.653S50.051,47.934,34.987,47.934ZM21.9,34.5a4.082,4.082,0,0,1-4.139-4.01c-.083-5.4,8.067-5.516,8.149-.13v.061a4.044,4.044,0,0,1-4.01,4.082Zm8.773-4.01c-.094-5.4,8.056-5.528,8.15-.142v.073C38.867,35.787,30.765,35.845,30.671,30.494ZM47.723,34.5a4.083,4.083,0,0,1-4.14-4.01c-.082-5.4,8.068-5.516,8.15-.13v.061a4.031,4.031,0,0,1-4.01,4.082Z" transform="translate(0 -0.202)" fill="#000"/>
</svg>
